<svg xmlns="http://www.w3.org/2000/svg" xmlns:xlink="http://www.w3.org/1999/xlink" version="1.1" x="0px" y="0px" viewBox="0 0 4000 5000" style="enable-background:new 0 0 4000 4000;" xml:space="preserve"><path d="M3600.195,1999.999c0-28.438-11.849-54.107-30.878-72.345L2550.508,908.81c-39.127-39.129-102.569-39.131-141.698-0.002  c-39.13,39.128-39.131,102.568-0.003,141.698l849.269,849.297H500c-55.337,0-100.196,44.859-100.196,100.196  S444.663,2100.194,500,2100.194h2757.845l-849.048,849.31c-39.123,39.135-39.112,102.575,0.021,141.698  c19.565,19.559,45.199,29.337,70.838,29.336c25.646-0.002,51.297-9.788,70.861-29.358l1015.523-1015.835  C3586.975,2056.98,3600.195,2030.035,3600.195,1999.999z"/><text x="0" y="4015" fill="#000000" font-size="5px" font-weight="bold" font-family="'Helvetica Neue', Helvetica, Arial-Unicode, Arial, Sans-serif">Created by Nesterenko Ruslan</text><text x="0" y="4020" fill="#000000" font-size="5px" font-weight="bold" font-family="'Helvetica Neue', Helvetica, Arial-Unicode, Arial, Sans-serif">from the Noun Project</text></svg>