<svg xmlns="http://www.w3.org/2000/svg" xmlns:xlink="http://www.w3.org/1999/xlink" version="1.1" x="0px" y="0px" viewBox="0 0 4000 5000" style="enable-background:new 0 0 4000 4000;" xml:space="preserve"><g><path d="M3452.9,1902.9H781.7l822.3-822.6c37.9-37.9,37.9-99.3,0-137.2s-99.3-37.9-137.2,0l-987.1,987.4   c-9.6,9.3-17.2,20.5-22.4,33.1c-0.5,1.3-0.4,2.8-0.8,4.1c-3.6,10.2-6.5,20.8-6.5,32.3c0,7.7,2.7,14.5,4.4,21.7   c1.2,5.1,1.1,10.4,3.1,15.3c5,12,12.1,22.8,21.2,31.8l0,0l988.2,988.2c19,19,43.8,28.4,68.6,28.4c24.8,0,49.7-9.5,68.6-28.4   c37.9-37.9,37.9-99.3,0-137.2L781.3,2097h2671.6c53.6,0,97.1-43.4,97.1-97.1C3550,1946.3,3506.6,1902.9,3452.9,1902.9z"/></g><text x="0" y="4015" fill="#000000" font-size="5px" font-weight="bold" font-family="'Helvetica Neue', Helvetica, Arial-Unicode, Arial, Sans-serif">Created by Nesterenko Ruslan</text><text x="0" y="4020" fill="#000000" font-size="5px" font-weight="bold" font-family="'Helvetica Neue', Helvetica, Arial-Unicode, Arial, Sans-serif">from the Noun Project</text></svg>